<svg xmlns="http://www.w3.org/2000/svg" viewBox="0 0 1280 360" width="1280" height="360"><rect width="1280" height="360" rx="20" fill="#F2EEE4"/><g transform="translate(235.4,71.2) scale(3.4)"><line x1="5" y1="32" x2="59" y2="32" stroke="#B9B2A3" stroke-width="2.5" stroke-linecap="round"/><polyline points="10,26 23,16 34,22 54,11" fill="none" stroke="#161513" stroke-width="5" stroke-linecap="round" stroke-linejoin="round"/><polyline points="10,38 23,48 34,42 54,53" fill="none" stroke="#E0482A" stroke-width="5" stroke-linecap="round" stroke-linejoin="round"/></g><g fill="#161513"><path transform="translate(509.04,221.51999999999998) scale(0.06445,-0.06445)" d="M958 0H1143L1474 1038H1253L1055 311H1051L815 1038H664L428 311H424L225 1038H4L336 0H520L737 727H741Z"/><path transform="translate(602.36,221.51999999999998) scale(0.06445,-0.06445)" d="M166 317 20 174Q223 -12 477 -12Q664 -10 784 74Q905 156 907 307Q907 436 840 520Q768 606 606 618L434 631Q358 639 328 668Q295 694 297 729Q297 784 338 819Q377 854 475 854Q561 854 627 829Q694 801 754 758L883 909Q807 975 711 1014Q661 1032 604 1042Q547 1051 475 1051Q309 1051 201 971Q90 891 88 731Q90 598 174 524Q256 448 387 436L571 420Q629 418 664 395Q698 373 698 317Q698 254 641 219Q584 184 494 184Q293 184 166 317Z"/><path transform="translate(663.72,221.51999999999998) scale(0.06445,-0.06445)" d="M66 0H897V209H340L809 797Q897 909 897 1053Q895 1233 776 1350Q659 1468 471 1470Q303 1468 188 1352Q74 1233 66 1051H274Q285 1151 344 1206Q401 1261 487 1261Q584 1259 637 1198Q688 1137 688 1055Q688 1024 680 989Q668 952 635 909L66 197Z"/><path transform="translate(725.08,221.51999999999998) scale(0.06445,-0.06445)" d="M358 41 301 -133Q287 -178 252 -201Q217 -223 176 -223H115V-420H184Q281 -420 358 -377Q434 -332 477 -215L924 1038H702L457 311H453L207 1038H-14Z"/><path transform="translate(781.67,221.51999999999998) scale(0.06445,-0.06445)" d="M680 0H889V709Q887 899 770 977Q653 1053 457 1051Q225 1055 106 899L270 774Q297 819 344 838Q389 854 467 854Q682 858 680 721V612H391Q225 610 139 522Q53 436 53 305Q53 168 152 80Q246 -10 420 -12Q526 -12 586 14Q647 39 676 92H680ZM680 365Q680 248 631 215Q577 182 446 184Q342 184 297 225Q250 262 250 315Q248 436 430 440H680Z"/><path transform="translate(845.67,221.51999999999998) scale(0.06445,-0.06445)" d="M135 0H344V618Q344 727 403 784Q461 842 551 842Q641 842 698 784Q756 727 756 618V0H965V690Q960 868 854 960Q747 1051 618 1051Q451 1051 348 928H344V1458H135Z"/><path transform="translate(914.56,221.51999999999998) scale(0.06445,-0.06445)" d="M84 520Q84 356 111 270Q139 184 197 121Q240 72 317 33Q393 -10 512 -12Q635 -10 711 33Q752 51 778 76Q807 98 827 121Q889 184 915 270Q940 356 940 520Q940 684 915 772Q889 858 827 917Q786 969 711 1010Q635 1049 512 1051Q393 1049 317 1010Q240 969 197 917Q139 858 111 772Q84 684 84 520ZM731 518Q731 412 721 362Q711 311 680 272Q657 242 612 219Q569 197 512 197Q459 197 414 219Q371 242 344 272Q317 311 305 362Q293 412 293 520Q293 629 305 680Q317 729 344 766Q371 801 414 821Q459 842 512 842Q569 842 612 821Q657 801 680 766Q711 729 721 680Q731 629 731 518Z"/><path transform="translate(978.56,221.51999999999998) scale(0.06445,-0.06445)" d="M84 520Q84 356 111 270Q139 184 197 121Q240 72 317 33Q393 -10 512 -12Q635 -10 711 33Q752 51 778 76Q807 98 827 121Q889 184 915 270Q940 356 940 520Q940 684 915 772Q889 858 827 917Q786 969 711 1010Q635 1049 512 1051Q393 1049 317 1010Q240 969 197 917Q139 858 111 772Q84 684 84 520ZM731 518Q731 412 721 362Q711 311 680 272Q657 242 612 219Q569 197 512 197Q459 197 414 219Q371 242 344 272Q317 311 305 362Q293 412 293 520Q293 629 305 680Q317 729 344 766Q371 801 414 821Q459 842 512 842Q569 842 612 821Q657 801 680 766Q711 729 721 680Q731 629 731 518Z"/></g></svg>
